<?xml version="1.0" encoding="UTF-8" standalone="no"?><!DOCTYPE svg PUBLIC
    "-//W3C//DTD SVG 20010904//EN"
    "http://www.w3.org/TR/2001/REC-SVG-20010904/DTD/svg10.dtd">

<svg xmlns="http://www.w3.org/2000/svg" viewBox="0 0 200 200">
    <path id="path" d="M 111.00,7.41
           C 113.72,8.69 116.76,10.88 118.79,13.09
             126.16,21.11 126.59,33.20 120.35,42.00
             116.24,47.81 111.51,48.84 108.58,53.04
             106.33,56.29 106.05,61.16 106.00,65.00
             105.87,76.74 105.73,77.28 110.69,88.00
             112.16,91.18 112.78,93.20 115.22,95.91
             118.60,99.68 125.68,104.02 130.00,107.15
             133.73,109.86 140.61,115.56 145.00,116.35
             148.69,117.02 152.29,114.94 156.00,114.32
             164.28,112.94 172.68,114.98 178.48,121.30
             192.17,136.20 180.35,161.16 160.00,159.91
             148.57,159.21 140.51,151.08 138.47,140.00
             137.14,132.83 140.59,129.60 133.89,123.46
             133.89,123.46 126.00,117.79 126.00,117.79
             121.44,114.33 114.00,108.40 112.08,117.79
             112.08,117.79 112.08,124.00 112.08,124.00
             112.08,124.00 112.08,179.00 112.08,179.00
             111.99,182.97 112.14,187.41 109.91,190.89
             106.63,196.02 97.54,196.52 93.70,191.77
             90.86,188.26 91.01,183.25 91.00,179.00
             91.00,179.00 91.00,122.00 91.00,122.00
             90.99,119.09 91.37,114.61 88.69,112.70
             86.46,111.12 84.09,112.33 82.00,113.47
             78.52,115.38 69.79,121.37 67.05,124.09
             57.94,133.15 65.70,138.63 57.36,149.98
             45.81,165.73 20.81,159.66 16.53,141.00
             13.21,126.55 24.23,113.01 39.00,113.01
             47.95,113.01 51.18,117.16 57.00,116.03
             60.39,115.37 65.11,111.97 68.00,109.98
             75.08,105.10 86.56,98.22 90.79,91.00
             97.17,80.10 97.14,76.16 97.00,64.00
             96.96,60.61 96.82,57.03 95.07,54.01
             92.64,49.86 88.44,48.10 85.18,44.82
             80.50,40.10 78.18,33.61 78.59,27.00
             79.36,14.68 87.58,7.95 99.00,5.48
             103.17,5.08 107.16,5.61 111.00,7.41 Z">
        <animate attributeName="fill" values="#42C809;#353535;#42C809" dur="2s"
            repeatCount="indefinite" />
    </path>
</svg>
