<svg xmlns="http://www.w3.org/2000/svg" viewBox="0 0 200 200">
    <path id="path"
        d="M 109.80,20.00 C 109.80,20.00 132.14,50.00 132.14,50.00 139.89,60.87 147.08,72.19 153.30,84.00 166.72,109.51 173.55,129.64 159.22,157.00	156.24,162.68 152.48,167.44 147.99,172.00	142.40,177.66 136.31,182.32 129.00,185.56	92.19,201.89 50.22,185.67 36.44,147.00	33.65,139.17 32.91,132.22 33.00,124.00	33.14,112.11 38.18,100.49 43.42,90.00	52.39,72.07 65.65,52.13 77.63,36.00	81.84,30.33 94.01,13.47 99.07,10.34	104.10,10.58 106.87,16.33 109.80,20.00 Z	M 59.00,88.00	C 56.72,91.43 54.02,95.26 52.35,99.00	44.30,116.94 43.07,139.62 55.16,156.00	61.56,164.67 78.88,175.41 90.00,171.00	82.45,167.29 76.04,161.54 70.81,155.00	54.33,134.41 54.55,112.32 61.00,88.00 61.00,88.00 59.00,88.00 59.00,88.00 Z" />
</svg>