<svg viewBox="0 0 270 360" xmlns="http://www.w3.org/2000/svg">
    <path d="M 141.90,2.72
           C 145.50,5.28 152.40,17.61 155.22,22.00
             168.62,42.86 184.50,62.50 199.79,82.00
             232.22,123.35 270.62,171.64 270.00,227.00
             270.00,227.00 269.07,237.00 269.07,237.00
             263.15,300.97 213.44,352.64 149.00,358.83
             123.15,361.31 96.24,356.68 73.00,344.74
             31.78,323.56 5.17,282.83 0.93,237.00
             0.93,237.00 0.00,227.00 0.00,227.00
             -0.65,169.46 40.09,120.99 73.35,78.00
             73.35,78.00 114.14,23.00 114.14,23.00
             117.10,18.47 124.55,5.37 128.18,2.72
             130.20,1.25 131.67,1.07 134.00,0.64
             137.06,0.69 139.27,0.87 141.90,2.72 Z
           M 75.33,146.04
           C 58.15,165.86 69.06,197.34 95.00,201.92
             97.70,202.39 100.25,202.90 103.00,202.68
             135.13,200.12 147.27,159.44 121.00,140.63
             114.47,135.96 108.77,134.97 101.00,134.57
             91.00,135.11 82.08,138.25 75.33,146.04 Z
           M 174.00,169.00
           C 174.00,169.00 153.00,190.00 153.00,190.00
             153.00,190.00 99.00,244.00 99.00,244.00
             99.00,244.00 71.21,272.00 71.21,272.00
             61.58,283.42 71.48,293.74 80.00,292.63
             85.54,291.91 89.26,287.72 93.00,284.00
             93.00,284.00 109.00,268.00 109.00,268.00
             109.00,268.00 178.00,199.00 178.00,199.00
             178.00,199.00 195.98,181.00 195.98,181.00
             199.87,177.00 203.55,173.02 202.77,167.00
             201.82,159.54 195.88,156.63 189.00,157.40
             182.40,159.51 178.78,164.22 174.00,169.00 Z
           M 135.00,280.00
           C 134.99,282.99 134.89,286.06 135.52,289.00
             138.62,303.50 152.22,314.82 167.00,315.00
             173.66,315.07 176.76,314.87 183.00,312.12
             203.13,303.25 209.15,277.11 195.61,260.00
             187.74,250.05 176.38,246.07 164.00,247.30
             147.43,250.43 135.08,262.65 135.00,280.00 Z" />
</svg>
