<svg xmlns="http://www.w3.org/2000/svg" viewBox="0 0 24 24">
    <path
        d="M 12 2 C 9.242 2 6.7465 3.1245 4.9375 4.9375 L 3 3 L 3 8 L 8 8 L 6.34375 6.34375 C 7.79175 4.89475 9.794 4 12 4 C 16.411 4 20 7.589 20 12 C 20 16.411 16.411 20 12 20 C 7.589 20 4 16.411 4 12 C 4 11.661 4.0205 11.328 4.0625 11 L 2.0625 11 C 2.0295 11.329 2 11.662 2 12 C 2 17.514 6.486 22 12 22 C 17.514 22 22 17.514 22 12 C 22 6.486 17.514 2 12 2 z M 11 7 L 11 12.40625 L 14.28125 15.6875 L 15.6875 14.28125 L 13 11.59375 L 13 7 L 11 7 z" />
</svg>
