<svg viewBox="0 0 500 500" xmlns="http://www.w3.org/2000/svg">
    <path d="M 211.85,40.00
           C 227.29,22.54 250.86,7.37 273.91,2.57
             286.37,-0.03 297.37,-0.09 310.00,0.00
             347.08,0.28 382.14,20.06 403.57,50.00
             416.19,67.63 424.75,88.28 426.91,110.00
             426.91,110.00 426.91,134.00 426.91,134.00
             426.92,136.66 425.80,141.27 427.64,143.28
             429.09,144.87 438.38,147.54 441.00,148.53
             447.32,150.92 456.40,155.97 461.83,160.00
             468.26,164.77 479.06,175.51 483.59,182.09
             483.59,182.09 494.00,199.00 494.00,199.00
             494.00,199.00 493.00,202.00 493.00,202.00
             495.35,203.49 495.03,204.33 495.00,207.00
             495.00,207.00 496.00,211.00 496.00,211.00
             498.88,213.26 498.53,216.76 499.01,220.14
             500.13,228.05 500.04,235.05 500.00,243.00
             499.98,246.85 499.90,255.39 497.00,258.00
             497.00,258.00 496.00,262.00 496.00,262.00
             496.00,262.00 495.00,265.00 495.00,265.00
             495.00,265.00 494.00,268.00 494.00,268.00
             494.25,271.07 494.53,271.17 492.00,273.00
             492.24,277.81 491.24,280.52 487.00,283.00
             486.65,289.58 478.52,297.38 473.99,302.00
             458.81,317.48 436.12,329.74 414.00,330.00
             414.00,330.00 203.00,330.00 203.00,330.00
             203.00,330.00 136.00,330.00 136.00,330.00
             136.00,330.00 121.00,331.00 121.00,331.00
             121.00,331.00 104.00,331.00 104.00,331.00
             78.38,330.70 52.08,322.61 33.00,304.91
             28.40,300.65 19.10,292.13 18.00,286.00
             10.52,281.49 8.02,268.45 5.00,265.00
             5.00,265.00 6.00,262.00 6.00,262.00
             1.74,258.73 1.39,251.10 0.55,246.04
             -0.11,239.00 -0.42,224.48 0.55,217.58
             0.55,217.58 2.00,203.00 2.00,203.00
             2.00,203.00 4.00,203.00 4.00,203.00
             4.00,203.00 5.00,199.00 5.00,199.00
             5.00,199.00 6.00,196.00 6.00,196.00
             6.00,196.00 5.00,193.00 5.00,193.00
             5.00,193.00 6.00,191.00 6.00,191.00
             6.00,191.00 8.00,191.00 8.00,191.00
             7.90,183.74 14.18,175.73 18.39,170.00
             29.24,155.21 44.11,142.80 61.00,135.58
             66.61,133.18 74.99,129.59 81.00,131.00
             84.06,127.57 86.35,130.58 89.34,127.45
             90.65,126.09 93.58,119.27 94.78,117.00
             97.44,111.99 101.40,106.22 105.17,102.00
             123.61,81.35 144.90,73.69 172.00,74.00
             177.75,74.07 183.60,75.03 189.00,77.00
             192.44,64.95 203.57,49.36 211.85,40.00 Z
           M 236.00,50.00
           C 236.00,50.00 237.00,51.00 237.00,51.00
             237.00,51.00 237.00,50.00 237.00,50.00
             237.00,50.00 236.00,50.00 236.00,50.00 Z
           M 157.04,362.00
           C 156.10,366.16 147.61,383.23 145.25,388.00
             145.25,388.00 125.25,430.00 125.25,430.00
             122.00,436.48 118.05,449.09 110.99,451.35
             101.90,454.26 93.26,446.32 95.79,437.00
             95.79,437.00 104.14,419.00 104.14,419.00
             104.14,419.00 127.74,370.00 127.74,370.00
             131.59,362.04 134.06,351.09 143.00,347.57
             152.26,346.10 159.14,352.65 157.04,362.00 Z
           M 248.89,363.00
           C 248.89,363.00 227.31,408.00 227.31,408.00
             227.31,408.00 216.31,431.00 216.31,431.00
             214.33,435.31 211.09,443.38 208.37,446.96
             200.76,456.92 185.86,450.90 187.37,439.00
             187.94,434.44 196.28,417.96 198.75,413.00
             198.75,413.00 219.75,369.00 219.75,369.00
             223.89,360.72 225.69,350.83 235.00,347.56
             244.64,346.09 251.96,353.49 248.89,363.00 Z
           M 340.04,364.00
           C 340.04,364.00 321.31,404.00 321.31,404.00
             321.31,404.00 301.04,445.98 301.04,445.98
             294.20,456.14 280.75,452.48 279.37,442.00
             278.68,436.76 285.29,424.26 287.78,419.00
             287.78,419.00 312.24,368.00 312.24,368.00
             316.00,360.36 317.79,351.58 326.01,347.70
             336.81,345.35 343.60,353.76 340.04,364.00 Z
           M 432.37,363.00
           C 432.37,363.00 420.26,389.00 420.26,389.00
             420.26,389.00 399.75,432.00 399.75,432.00
             396.15,439.22 393.34,450.98 384.00,451.89
             377.31,452.54 372.10,448.83 371.23,442.00
             370.49,436.25 377.51,423.47 380.25,418.00
             380.25,418.00 403.69,369.00 403.69,369.00
             407.32,361.10 409.85,352.03 418.00,347.74
             428.17,345.38 435.19,352.99 432.37,363.00 Z
           M 90.36,410.00
           C 90.36,410.00 77.25,438.00 77.25,438.00
             77.25,438.00 57.78,479.00 57.78,479.00
             54.23,486.52 50.87,498.87 41.00,499.60
             32.01,500.27 27.23,490.86 29.96,483.00
             29.96,483.00 42.74,456.00 42.74,456.00
             42.74,456.00 61.63,416.00 61.63,416.00
             65.60,407.37 68.36,396.34 79.00,394.77
             87.49,395.27 92.72,401.55 90.36,410.00 Z
           M 182.21,410.00
           C 182.21,410.00 170.78,435.00 170.78,435.00
             170.78,435.00 149.75,479.00 149.75,479.00
             146.05,486.41 142.47,498.80 133.00,499.75
             130.56,499.99 128.10,499.30 126.04,497.99
             119.52,493.87 120.02,487.38 122.47,481.00
             122.47,481.00 129.69,466.00 129.69,466.00
             129.69,466.00 153.58,416.00 153.58,416.00
             157.31,407.44 160.61,396.30 171.00,394.77
             179.51,395.27 184.55,401.60 182.21,410.00 Z
           M 274.63,405.00
           C 275.44,411.11 268.52,422.21 265.78,428.00
             265.78,428.00 240.69,481.00 240.69,481.00
             237.61,487.72 233.47,499.06 225.00,499.70
             215.50,500.41 210.78,491.14 213.55,483.00
             213.55,483.00 227.74,453.00 227.74,453.00
             227.74,453.00 245.75,415.00 245.75,415.00
             250.03,406.45 252.06,396.38 263.00,394.77
             269.42,395.14 273.75,398.29 274.63,405.00 Z
           M 366.43,408.00
           C 365.75,411.84 356.54,430.39 354.25,435.00
             354.25,435.00 333.31,479.00 333.31,479.00
             329.93,486.37 326.39,498.74 317.00,499.75
             306.62,500.86 303.12,490.25 305.96,482.00
             305.96,482.00 317.74,457.00 317.74,457.00
             317.74,457.00 337.24,416.00 337.24,416.00
             341.47,407.41 343.32,396.57 354.00,394.78
             361.04,395.16 367.82,400.29 366.43,408.00 Z
           M 457.89,405.00
           C 458.50,411.29 451.73,424.00 448.75,430.00
             448.75,430.00 424.84,480.00 424.84,480.00
             421.39,487.41 418.40,498.47 409.00,499.63
             401.18,500.59 394.21,492.61 396.91,484.00
             396.91,484.00 406.22,464.00 406.22,464.00
             406.22,464.00 428.42,417.00 428.42,417.00
             432.17,408.40 435.80,396.86 446.00,394.83
             452.29,395.05 457.24,398.33 457.89,405.00 Z" />
</svg>
