<svg xmlns="http://www.w3.org/2000/svg" viewBox="0 0 512 512">
    <path
        d="M 275.00,118.77	C 258.21,121.80 253.56,99.57 270.00,94.57	287.22,93.12 289.29,116.20 275.00,118.77 Z	M 233.00,137.64	C 230.09,138.90 227.14,139.12 224.00,138.96	211.44,138.30 204.14,124.04 209.69,113.00	212.65,107.09 216.87,104.90 223.00,103.48	245.27,101.32 250.25,130.15 233.00,137.64 Z	M 276.00,190.67	C 271.31,192.90 268.09,193.11 263.00,192.99	248.13,192.62 239.00,181.35 239.00,167.00	239.00,163.27 239.01,160.51 240.53,157.00	244.61,147.60 252.39,143.19 262.00,141.45	291.52,138.92 301.26,178.67 276.00,190.67 Z	M 323.00,187.01	C 320.50,187.97 317.65,188.10 315.00,187.96	303.19,187.34 296.53,174.44 301.41,164.01	304.05,158.38 308.18,155.88 314.00,154.48	335.19,152.42 340.87,180.13 323.00,187.01 Z	M 212.00,224.64	C 208.84,226.47 203.64,228.38 200.00,228.82	189.71,230.06 178.70,227.21 171.13,219.82	158.32,207.20 158.41,184.78 171.13,172.09	177.88,165.31 183.96,163.75 193.00,162.44	227.67,159.67 241.67,207.42 212.00,224.64 Z	M 337.00,256.18	C 331.44,259.09 328.06,259.07 322.00,259.00	302.22,258.76 289.28,238.23 296.27,220.00	300.50,208.96 308.76,203.59 320.00,201.44	352.56,197.96 365.01,241.50 337.00,256.18 Z	M 264.00,277.01	C 258.33,279.88 254.17,280.07 248.00,280.00	226.02,279.74 211.70,257.27 219.47,237.00	224.25,224.53 233.34,218.80 246.00,216.44	281.18,212.25 295.11,261.23 264.00,277.01 Z	M 151.00,243.27	C 169.60,244.17 186.17,257.35 189.77,276.00	190.14,279.32 190.04,283.58 189.77,287.00	189.89,295.73 186.89,303.16 181.48,310.00	178.12,314.26 173.77,317.88 169.00,320.48	161.82,324.41 154.98,325.09 147.00,325.00	117.32,324.65 100.22,291.74 112.49,266.00	119.25,251.82 130.32,246.15 145.00,243.27	147.32,243.14 148.61,242.95 151.00,243.27 Z	M 380.00,310.62	C 375.41,312.92 372.01,313.11 367.00,312.99	349.04,312.55 338.05,292.87 346.00,277.00	350.31,268.39 357.00,265.08 366.00,263.45	394.64,260.99 403.49,298.86 380.00,310.62 Z	M 292.00,292.26	C 309.01,293.06 323.96,300.41 334.47,314.00	351.91,336.53 347.73,371.55 326.00,389.68	313.24,400.32 301.92,402.18 286.00,402.00	278.34,401.91 271.79,399.65 265.00,396.24	239.17,383.24 228.79,352.39 239.45,326.00	248.01,304.83 264.48,295.67 286.00,292.26	288.36,292.14 289.56,291.95 292.00,292.26 Z	M 429.00,317.66	C 445.52,321.39 459.50,335.18 462.77,352.00	463.17,355.52 463.04,361.28 462.77,365.00	462.93,370.89 461.26,376.73 458.63,382.00	449.62,400.02 434.05,406.23 415.00,406.00	384.70,405.63 365.90,371.99 376.46,345.00	383.75,326.37 397.31,319.22 416.00,316.43	420.58,315.97 424.52,316.66 429.00,317.66 Z	M 108.00,400.66	C 99.23,405.66 94.75,406.11 85.00,406.00	53.95,405.63 37.63,370.80 52.34,345.00	59.73,332.02 70.05,327.69 84.00,325.43	126.18,321.14 144.80,379.69 108.00,400.66 Z	M 202.00,401.53	C 194.81,405.98 191.13,406.09 183.00,406.00	160.67,405.73 146.97,380.63 156.40,361.00	161.65,350.07 170.61,345.28 182.00,343.43	214.90,340.08 229.39,384.60 202.00,401.53 Z" />
</svg>