<svg xmlns="http://www.w3.org/2000/svg" viewBox="0 0 740 740">
    <path
        d="M 161.00,143.00	C 161.00,143.00 142.00,160.17 142.00,160.17	128.94,171.99 117.23,186.19 107.69,201.00	64.03,268.77 58.83,350.72 94.97,423.00	103.13,439.32 116.71,459.71 129.09,473.00	129.09,473.00 161.00,505.00 161.00,505.00	161.00,505.00 129.00,543.00 129.00,543.00	129.00,543.00 98.04,515.00 98.04,515.00	78.98,495.08 63.33,472.23 50.31,448.00	41.11,430.88 32.68,406.02 28.35,387.00	24.74,371.11 21.03,348.15 21.00,332.00	21.00,332.00 21.00,314.00 21.00,314.00	21.00,314.00 21.91,302.00 21.91,302.00	24.30,267.85 34.05,228.26 50.31,198.00	63.33,173.76 78.98,150.92 98.04,131.00	98.04,131.00 129.00,103.00 129.00,103.00	137.29,109.07 155.02,133.54 161.00,143.00 Z	M 670.14,163.00	C 734.33,252.57 737.65,371.93 681.20,466.00	671.10,482.83 660.17,496.30 647.28,511.00	638.01,521.58 623.23,536.13 611.00,543.00	611.00,543.00 581.00,503.00 581.00,503.00	581.00,503.00 597.00,488.83 597.00,488.83	611.24,475.96 623.91,461.14 634.31,445.00	681.01,372.49 682.63,288.52 641.69,213.00	635.16,200.95 620.46,180.72 610.99,171.00	610.99,171.00 581.00,141.00 581.00,141.00	581.00,141.00 611.00,103.00 611.00,103.00	630.40,113.90 656.97,144.62 670.14,163.00 Z	M 214.58,203.00	C 214.58,203.00 229.83,220.00 229.83,220.00	232.30,222.79 236.17,226.97 235.17,231.00	234.31,234.45 229.45,239.39 227.02,242.00	223.28,246.03 219.86,250.38 216.86,255.00	206.16,271.52 196.24,297.15 196.00,317.00	195.74,339.85 200.36,363.10 212.01,383.00	215.83,389.52 221.00,397.48 226.09,403.00	228.96,406.11 235.04,411.60 235.36,416.00	235.61,419.51 232.02,423.53 229.83,426.00	229.83,426.00 213.72,444.00 213.72,444.00	211.71,446.27 208.03,450.40 205.00,451.04	199.43,452.22 192.46,442.74 189.27,439.00	175.50,422.85 166.56,408.66 158.60,389.00	138.36,339.02 142.65,281.76 169.28,235.00	175.43,224.21 181.89,215.40 190.00,206.00	194.05,201.30 196.97,197.25 203.00,195.07	208.55,195.38 211.10,199.01 214.58,203.00 Z	M 552.00,206.00	C 564.61,220.62 569.73,228.97 578.25,246.00	603.33,296.17 601.94,362.74 572.80,411.00	566.16,421.98 558.76,432.54 550.07,442.00	547.49,444.81 542.90,450.36 539.00,451.05	535.17,451.73 531.49,447.53 529.17,445.00	529.17,445.00 512.17,426.00 512.17,426.00	509.98,423.53 506.39,419.51 506.64,416.00	506.94,411.88 512.26,406.87 514.97,404.00	519.86,398.81 523.82,393.04 527.58,387.00	538.41,369.60 545.76,345.57 546.00,325.00	546.27,301.60 539.48,277.79 526.95,258.00	520.57,247.94 518.56,246.55 511.30,238.00	509.04,235.34 505.90,231.75 506.83,228.00	507.60,224.89 511.81,220.42 513.95,218.00	519.55,211.69 529.70,198.04 537.00,195.08	543.98,195.27 547.79,201.12 552.00,206.00 Z	M 320.00,423.00	C 314.56,422.93 308.12,421.75 303.00,419.91	298.96,418.46 294.47,416.04 291.00,413.51	268.97,397.47 271.00,377.09 271.00,353.00	271.00,353.00 271.00,315.00 271.00,315.00	271.00,315.00 271.00,286.00 271.00,286.00	271.00,263.46 271.21,247.78 291.00,232.53	294.46,229.86 299.84,227.11 304.00,225.75	310.05,223.76 315.66,223.01 322.00,223.00	322.00,223.00 419.00,223.00 419.00,223.00	449.47,223.05 470.85,243.21 471.00,274.00	471.00,274.00 471.00,352.00 471.00,352.00	471.00,375.24 473.29,395.40 452.96,411.98	449.55,414.77 446.01,416.88 442.00,418.69	429.06,424.52 410.22,423.00 396.00,423.00	396.00,423.00 396.00,694.00 396.00,694.00	396.00,694.00 346.00,694.00 346.00,694.00	346.00,694.00 346.00,423.00 346.00,423.00	346.00,423.00 320.00,423.00 320.00,423.00 Z	M 321.00,273.00	C 321.00,273.00 321.00,373.00 321.00,373.00	321.00,373.00 421.00,373.00 421.00,373.00	421.00,373.00 421.00,273.00 421.00,273.00	421.00,273.00 321.00,273.00 321.00,273.00 Z" />
</svg>