<svg xmlns="http://www.w3.org/2000/svg" viewBox="0 0 1024 1024">
    <path
        d="M 517.00,68.21	C 563.89,67.46 606.84,97.36 621.67,142.00	624.33,150.01 626.90,160.57 627.00,169.00	627.00,169.00 627.00,181.00 627.00,181.00	626.96,203.78 615.54,230.95 600.71,248.00	585.71,265.26 568.08,273.11 556.61,286.09	543.98,300.39 540.03,320.34 540.00,339.00	540.00,339.00 540.00,356.00 540.00,356.00	540.00,356.00 539.08,367.00 539.08,367.00	539.08,367.00 540.00,378.00 540.00,378.00	540.12,388.53 539.63,391.10 541.61,402.00	544.82,419.65 554.51,439.68 562.22,456.00	568.08,468.42 571.68,479.19 581.18,490.00	598.83,510.08 631.69,529.88 654.00,546.15	654.00,546.15 700.00,578.40 700.00,578.40	709.18,583.83 720.01,589.20 731.00,588.49	750.65,587.21 766.84,577.24 787.00,577.00	787.00,577.00 804.00,577.00 804.00,577.00	826.23,577.03 853.45,587.40 870.00,602.17	882.95,613.73 893.10,626.80 899.55,643.00	919.35,692.74 897.64,751.40 852.00,778.55	831.55,790.72 814.02,792.27 791.00,792.00	780.22,791.87 766.89,788.36 757.00,784.15	744.47,778.81 732.79,771.62 723.09,761.91	703.05,741.88 690.04,709.32 690.00,681.00	690.00,681.00 690.82,662.00 690.82,662.00	689.50,643.48 682.18,632.18 668.00,620.32	668.00,620.32 633.00,594.99 633.00,594.99	622.17,587.13 611.66,578.33 599.00,573.47	596.22,572.40 590.95,571.11 588.00,571.27	573.44,572.07 568.02,589.98 568.00,602.00	568.00,602.00 568.00,892.00 568.00,892.00	568.00,892.00 567.09,904.00 567.09,904.00	566.13,917.77 564.15,931.10 554.68,941.96	536.98,962.24 496.95,961.98 480.61,940.00	471.41,927.63 469.02,907.08 469.00,892.00	469.00,892.00 469.00,641.00 469.00,641.00	469.00,641.00 469.00,607.00 469.00,607.00	469.00,599.08 469.56,591.64 466.90,584.00	463.96,575.54 455.76,566.51 446.00,567.55	435.70,568.65 420.73,578.68 412.00,584.31	388.11,599.69 350.44,623.55 339.23,650.00	330.69,670.15 334.74,692.24 328.28,714.00	325.51,723.32 321.70,730.78 316.58,739.00	295.75,772.39 262.72,788.45 224.00,788.00	213.66,787.88 196.69,783.94 187.00,780.19	151.12,766.30 126.58,736.72 119.46,699.00	117.69,689.64 117.89,681.44 118.00,672.00	118.11,662.62 121.92,647.72 125.45,639.00	131.75,623.45 140.96,611.54 153.00,600.04	169.34,584.43 196.28,573.04 219.00,573.00	219.00,573.00 235.00,573.00 235.00,573.00	239.63,573.06 246.41,574.07 251.00,575.00	266.08,578.06 283.84,586.83 298.00,587.00	298.00,587.00 304.00,587.00 304.00,587.00	313.42,586.89 319.80,583.41 328.00,579.24	341.32,572.48 362.21,557.62 375.00,548.72	401.43,530.34 429.52,513.46 451.96,490.00	476.49,464.36 496.58,418.78 497.00,383.00	497.00,383.00 498.00,370.00 498.00,370.00	498.00,370.00 498.00,349.00 498.00,349.00	498.00,349.00 497.00,336.00 497.00,336.00	496.85,322.61 495.41,308.85 488.54,297.00	474.53,272.86 451.09,267.40 431.48,241.00	405.67,206.26 403.98,151.99 428.09,116.00	436.37,103.64 446.75,95.06 459.00,87.00	474.30,76.93 493.03,71.14 511.00,68.21	511.00,68.21 517.00,68.21 517.00,68.21 Z" />
</svg>