<svg xmlns="http://www.w3.org/2000/svg" viewBox="0 0 200 200">
    <path d="M 79.25,39.00
           C 94.61,15.86 133.76,25.30 132.99,57.00
             132.71,68.42 124.84,79.37 114.00,83.17
             109.43,84.77 104.78,84.99 100.00,85.00
             100.00,85.00 15.00,85.00 15.00,85.00
             15.00,85.00 15.00,70.00 15.00,70.00
             15.00,70.00 102.00,70.00 102.00,70.00
             111.07,69.88 119.36,63.93 118.15,54.00
             117.18,46.10 109.89,40.34 102.00,41.11
             94.84,41.81 90.25,48.43 89.00,55.00
             89.00,55.00 74.00,55.00 74.00,55.00
             74.48,49.35 76.08,43.76 79.25,39.00 Z
           M 144.41,71.00
           C 156.95,47.66 192.47,52.15 198.76,78.00
             199.45,80.84 200.06,84.07 199.81,87.00
             198.30,105.30 184.39,114.79 167.00,115.00
             167.00,115.00 0.00,115.00 0.00,115.00
             0.00,115.00 0.00,100.00 0.00,100.00
             0.00,100.00 165.00,100.00 165.00,100.00
             172.74,99.99 178.55,99.36 182.99,92.00
             188.57,82.76 180.52,70.28 170.00,70.37
             165.23,70.41 160.42,74.22 157.87,78.01
             156.75,79.70 155.64,82.97 154.28,84.01
             152.28,85.53 143.81,85.00 141.00,85.00
             141.12,79.82 141.92,75.63 144.41,71.00 Z
           M 147.00,130.00
           C 159.28,130.15 169.39,136.90 169.96,150.00
             170.95,172.61 148.71,178.07 137.00,170.86
             129.30,166.11 127.14,160.45 126.00,152.00
             126.00,152.00 141.00,152.00 141.00,152.00
             141.97,155.25 143.22,158.00 147.00,158.63
             151.56,159.39 156.28,154.55 155.00,150.02
             152.64,141.63 134.99,144.00 128.00,144.00
             128.00,144.00 45.00,144.00 45.00,144.00
             45.00,144.00 45.00,130.00 45.00,130.00
             45.00,130.00 147.00,130.00 147.00,130.00 Z" />
</svg>
