<svg xmlns="http://www.w3.org/2000/svg" viewBox="0 0 200 200">
    <path d="M 198.25,20.00
           C 198.25,20.00 179.81,50.00 179.81,50.00
             179.81,50.00 111.42,159.00 111.42,159.00
             111.42,159.00 94.96,185.00 94.96,185.00
             92.59,188.29 89.57,191.67 85.04,190.67
             80.24,189.61 80.06,184.99 80.00,181.00
             80.00,181.00 79.02,167.00 79.02,167.00
             79.02,167.00 79.02,154.00 79.02,154.00
             79.02,154.00 78.04,144.00 78.04,144.00
             78.04,144.00 78.04,130.00 78.04,130.00
             78.04,130.00 77.09,120.00 77.09,120.00
             76.72,114.62 78.34,109.47 72.94,106.09
             69.71,104.06 60.24,102.46 56.00,101.37
             56.00,101.37 20.00,92.37 20.00,92.37
             14.84,91.08 2.89,89.81 1.45,83.96
             0.09,78.42 4.72,75.96 9.00,74.21
             9.00,74.21 43.00,61.69 43.00,61.69
             43.00,61.69 124.00,32.58 124.00,32.58
             124.00,32.58 188.00,9.52 188.00,9.52
             196.04,8.25 202.29,10.64 198.25,20.00 Z" />
</svg>